<svg width="17" height="17" viewBox="0 0 17 17" fill="none" xmlns="http://www.w3.org/2000/svg">
  <path fill-rule="evenodd" clip-rule="evenodd" d="M8 16C12.4183 16 16 12.4183 16 8C16 3.58172 12.4183 0 8 0C3.58172 0 0 3.58172 0 8C0 12.4183 3.58172 16 8 16ZM8 14C11.3137 14 14 11.3137 14 8C14 4.68629 11.3137 2 8 2C4.68629 2 2 4.68629 2 8C2 11.3137 4.68629 14 8 14Z" fill="black"/>
  <circle cx="15.5355" cy="15.5355" r="1" transform="rotate(45 15.5355 15.5355)" fill="black"/>
  <line x1="12.7071" y1="12.7071" x2="15.5355" y2="15.5355" stroke="black" stroke-width="2"/>
</svg>
